# xmcd
#
# Track frame offsets: 
#        150
#        16395
#        30805
#        46672
#        61152
#        65585
#        86657
#        106620
#        119997
#        141765
#        166855
#        188285
#        211272
#        221945
#        232722
#
# Disc length: 3139 seconds
#
# Revision: 0
# Processed by: cddbd v1.5PL3 Copyright (c) Steve Scherf et al.
# Submitted via: ExactAudioCopy v0.95a4
#
DISCID=bd0c410f
DTITLE=Skip James - Неизвестное название
DYEAR=1900
DGENRE=Blues
TTITLE0=Illinois Blues
TTITLE1=How Long Blues
TTITLE2=Drunken Spree
TTITLE3=Four O'Clock
TTITLE4=Hard Luck Child
TTITLE5=I Don'T Want A Woman To Stay Out All Night
TTITLE6=Loretta Blues
TTITLE7=Special Lover Blues
TTITLE8=Cherry Ball Blues
TTITLE9=Washington D.C. Hospital Center Blues
TTITLE10=Hard Luck Child (No. 2)
TTITLE11=Look At The People
TTITLE12=Mary Don'T You Weep
TTITLE13=Someday You Gotta Die
TTITLE14=I'm So Glad
EXTD=
EXTT0=
EXTT1=
EXTT2=
EXTT3=
EXTT4=
EXTT5=
EXTT6=
EXTT7=
EXTT8=
EXTT9=
EXTT10=
EXTT11=
EXTT12=
EXTT13=
EXTT14=
PLAYORDER=
